<svg width="28" height="25" viewBox="0 0 28 25" fill="none" xmlns="http://www.w3.org/2000/svg">
<path d="M14 2C9 2 4.73 5.11 3 9.5C4.73 13.89 9 17 14 17C19 17 23.27 13.89 25 9.5C23.27 5.11 19 2 14 2ZM14 14.5C11.24 14.5 9 12.26 9 9.5C9 6.74 11.24 4.5 14 4.5C16.76 4.5 19 6.74 19 9.5C19 12.26 16.76 14.5 14 14.5ZM14 6.5C12.34 6.5 11 7.84 11 9.5C11 11.16 12.34 12.5 14 12.5C15.66 12.5 17 11.16 17 9.5C17 7.84 15.66 6.5 14 6.5Z" fill="url(#paint0_linear_562_215)"/>
<path d="M5 15.2407L14.6177 9.12034L24.2355 2.99996" stroke="white" stroke-width="4.5" stroke-linecap="round"/>
<g filter="url(#filter0_d_562_215)">
<path d="M5 15.2407L13.985 9.523L22.97 3.80528" stroke="url(#paint1_linear_562_215)" stroke-width="2" stroke-linecap="round"/>
</g>
<defs>
<filter id="filter0_d_562_215" x="-0.00012207" y="2.80515" width="27.9702" height="21.4357" filterUnits="userSpaceOnUse" color-interpolation-filters="sRGB">
<feFlood flood-opacity="0" result="BackgroundImageFix"/>
<feColorMatrix in="SourceAlpha" type="matrix" values="0 0 0 0 0 0 0 0 0 0 0 0 0 0 0 0 0 0 127 0" result="hardAlpha"/>
<feOffset dy="4"/>
<feGaussianBlur stdDeviation="2"/>
<feComposite in2="hardAlpha" operator="out"/>
<feColorMatrix type="matrix" values="0 0 0 0 0 0 0 0 0 0 0 0 0 0 0 0 0 0 0.25 0"/>
<feBlend mode="normal" in2="BackgroundImageFix" result="effect1_dropShadow_562_215"/>
<feBlend mode="normal" in="SourceGraphic" in2="effect1_dropShadow_562_215" result="shape"/>
</filter>
<linearGradient id="paint0_linear_562_215" x1="3" y1="1.07895" x2="27.7296" y2="6.69846" gradientUnits="userSpaceOnUse">
<stop stop-color="#53E88B"/>
<stop offset="1" stop-color="#15BE77"/>
</linearGradient>
<linearGradient id="paint1_linear_562_215" x1="4.96703" y1="15.1889" x2="10.5052" y2="19.9477" gradientUnits="userSpaceOnUse">
<stop stop-color="#53E88B"/>
<stop offset="1" stop-color="#15BE77"/>
</linearGradient>
</defs>
</svg>
